<?xml version="1.0" standalone="no"?>
<!DOCTYPE svg PUBLIC "-//W3C//DTD SVG 20010904//EN"
 "http://www.w3.org/TR/2001/REC-SVG-20010904/DTD/svg10.dtd">
<svg version="1.0" xmlns="http://www.w3.org/2000/svg"
 width="512.000000pt" height="512.000000pt" viewBox="0 0 512.000000 512.000000"
 preserveAspectRatio="xMidYMid meet">
<metadata>
Created by potrace 1.11, written by Peter Selinger 2001-2013
</metadata>
<g transform="translate(0.000000,512.000000) scale(0.100000,-0.100000)"
fill="#000000" stroke="none">
<path d="M3206 3723 c-3 -15 -19 -102 -37 -193 -52 -282 -99 -439 -218 -746
l-51 -130 -57 -12 c-32 -7 -75 -17 -96 -22 l-37 -11 15 -30 c9 -16 35 -41 58
-56 23 -15 44 -29 46 -30 3 -2 -1 -20 -8 -41 -31 -85 -226 -576 -273 -685 -59
-138 -61 -131 40 -239 42 -44 85 -78 124 -98 82 -40 96 -39 103 8 15 86 80
346 115 462 59 191 178 509 202 538 7 8 39 12 91 12 44 0 179 11 301 24 274
30 316 34 316 31 0 -2 -16 -61 -35 -131 -83 -303 -110 -459 -103 -602 7 -121
35 -201 83 -238 19 -14 43 -41 54 -59 24 -41 58 -64 103 -72 l35 -5 6 128 c9
208 85 580 182 898 l27 89 53 -6 c53 -5 54 -5 64 25 18 50 13 101 -15 157
l-27 53 48 127 c91 241 200 451 294 568 l50 62 -37 33 c-48 44 -130 90 -211
119 l-64 23 -24 -30 c-79 -97 -200 -352 -323 -679 l-68 -180 -154 -12 c-84 -7
-236 -24 -338 -37 -102 -13 -186 -23 -187 -22 -3 3 224 512 257 576 12 25 38
71 57 102 l34 57 -39 53 c-86 117 -222 219 -324 243 -23 6 -27 3 -32 -22z"/>
<path d="M1235 3730 c-353 -56 -605 -229 -700 -483 -14 -37 -25 -80 -25 -95 0
-68 99 -196 167 -216 18 -6 23 -1 33 31 72 224 220 416 400 517 46 26 85 45
87 43 15 -16 -500 -1395 -631 -1690 l-26 -59 27 -51 c15 -29 59 -84 98 -122
117 -118 263 -178 464 -191 538 -35 1072 370 1271 963 44 132 61 230 67 393 6
179 -14 292 -76 425 -129 276 -357 446 -696 521 -84 19 -373 27 -460 14z m533
-156 c235 -56 401 -219 447 -439 35 -167 9 -419 -66 -631 -142 -401 -437 -699
-805 -810 -79 -24 -106 -27 -244 -28 -188 -1 -230 6 -230 37 0 67 83 316 190
571 137 328 389 852 494 1029 25 43 46 81 46 83 0 12 -162 107 -231 135 -43
18 -76 36 -74 40 3 4 38 13 78 19 39 6 79 13 87 15 35 9 246 -6 308 -21z"/>
</g>
</svg>
